<svg xmlns="http://www.w3.org/2000/svg" width="950" height="460" viewBox="0 0 950 460"><style>text{font-family:Arial,sans-serif;font-size:11px;fill:#333}.l{font-size:10px;fill:#555}.v{font-size:10px;fill:#2E75B6;font-weight:bold}.sec{font-size:12px;fill:#2E75B6;font-weight:bold}line,polyline{stroke:#333;stroke-width:1.5;fill:none}rect.c{fill:none;stroke:#333;stroke-width:1.5}</style><text x="475" y="22" text-anchor="middle" font-size="14" font-weight="bold" fill="#1a1a1a">Esquema complet del circuit (versió final)</text><rect x="10" y="35" width="210" height="300" rx="8" fill="#F0F8FF" stroke="#2E75B6" stroke-width="1" stroke-dasharray="4,3"/><text class="sec" x="115" y="55" text-anchor="middle">SENSOR</text><rect x="230" y="35" width="270" height="300" rx="8" fill="#F0FFF0" stroke="#548235" stroke-width="1" stroke-dasharray="4,3"/><text class="sec" x="365" y="55" text-anchor="middle">ACONDICIONAMENT</text><rect x="510" y="35" width="120" height="300" rx="8" fill="#FFFEF0" stroke="#BF8F00" stroke-width="1" stroke-dasharray="4,3"/><text class="sec" x="570" y="55" text-anchor="middle">DAQ</text><rect x="640" y="35" width="300" height="300" rx="8" fill="#FFF5F5" stroke="#C0392B" stroke-width="1" stroke-dasharray="4,3"/><text class="sec" x="790" y="55" text-anchor="middle">ETAPA POTÈNCIA</text><text class="v" x="60" y="78">Vcc=5V</text><line x1="80" y1="82" x2="80" y2="110"/><rect class="c" x="72" y="110" width="16" height="45"/><text class="l" x="95" y="135">R_fix 10kΩ</text><line x1="80" y1="155" x2="80" y2="185"/><circle cx="80" cy="185" r="3" fill="#333"/><rect class="c" x="72" y="200" width="16" height="45"/><text class="l" x="30" y="225" text-anchor="end">LDR GL121</text><line x1="80" y1="245" x2="80" y2="270"/><line x1="65" y1="270" x2="95" y2="270"/><line x1="70" y1="275" x2="90" y2="275"/><line x1="75" y1="280" x2="85" y2="280"/><line x1="80" y1="185" x2="250" y2="185"/><rect class="c" x="250" y="177" width="45" height="16"/><text class="l" x="272" y="172">R_f 1kΩ</text><line x1="295" y1="185" x2="330" y2="185"/><circle cx="330" cy="185" r="3" fill="#333"/><line x1="330" y1="185" x2="330" y2="210"/><line x1="320" y1="210" x2="340" y2="210" stroke-width="2.5"/><line x1="320" y1="216" x2="340" y2="216" stroke-width="2.5"/><line x1="330" y1="216" x2="330" y2="240"/><text class="v" x="345" y="216">C 10nF</text><line x1="315" y1="240" x2="345" y2="240"/><line x1="320" y1="245" x2="340" y2="245"/><line x1="325" y1="250" x2="335" y2="250"/><line x1="330" y1="185" x2="380" y2="185"/><polygon points="390,150 390,220 460,185" fill="#F5F5F5" stroke="#333" stroke-width="2"/><text x="398" y="173" font-size="9">+</text><text x="398" y="205" font-size="9">−</text><text x="410" y="190" font-size="9" font-weight="bold">UA741</text><line x1="380" y1="165" x2="390" y2="165"/><line x1="380" y1="165" x2="380" y2="185"/><line x1="360" y1="205" x2="390" y2="205"/><line x1="360" y1="205" x2="360" y2="235"/><rect class="c" x="352" y="235" width="16" height="40"/><text class="l" x="375" y="260">R1 10kΩ</text><line x1="360" y1="275" x2="360" y2="295"/><line x1="345" y1="295" x2="375" y2="295"/><line x1="350" y1="300" x2="370" y2="300"/><line x1="355" y1="305" x2="365" y2="305"/><line x1="360" y1="205" x2="360" y2="115"/><line x1="360" y1="115" x2="470" y2="115"/><rect class="c" x="395" y="107" width="45" height="16"/><text class="v" x="418" y="103">R2 39kΩ</text><line x1="470" y1="115" x2="470" y2="185"/><line x1="460" y1="185" x2="540" y2="185"/><circle cx="470" cy="185" r="3" fill="#333"/><text class="v" x="478" y="178">Vo</text><rect x="530" y="140" width="80" height="90" rx="5" fill="#FFFDE7" stroke="#BF8F00" stroke-width="2"/><text x="570" y="160" text-anchor="middle" font-size="9" font-weight="bold">NI-USB</text><text x="570" y="172" text-anchor="middle" font-size="9" font-weight="bold">6002</text><text x="570" y="190" text-anchor="middle" font-size="8">AI 0 ←</text><text x="570" y="204" text-anchor="middle" font-size="8" fill="#C0392B">AO 0 →</text><text x="570" y="220" text-anchor="middle" font-size="8" fill="#7030A0">↕ LabView</text><line x1="610" y1="198" x2="680" y2="198"/><text class="l" x="645" y="192" fill="#C0392B">AO 0</text><rect class="c" x="680" y="190" width="45" height="16"/><text class="l" x="702" y="184">Rb 1kΩ</text><line x1="725" y1="198" x2="755" y2="198"/><circle cx="770" cy="198" r="26" fill="#FFF5F5" stroke="#333" stroke-width="1.5"/><line x1="758" y1="178" x2="758" y2="218" stroke="#333" stroke-width="2.5"/><line x1="758" y1="181" x2="770" y2="173"/><line x1="758" y1="215" x2="770" y2="223"/><polygon points="770,223 764,216 768,213" fill="#333"/><text class="v" x="800" y="198">2N2222A</text><line x1="770" y1="223" x2="770" y2="270"/><line x1="755" y1="270" x2="785" y2="270"/><line x1="760" y1="275" x2="780" y2="275"/><line x1="765" y1="280" x2="775" y2="280"/><line x1="770" y1="128" x2="770" y2="173"/><circle cx="770" cy="102" r="22" fill="#FCE4EC" stroke="#C0392B" stroke-width="2"/><text x="770" y="106" text-anchor="middle" font-size="11" font-weight="bold" fill="#C0392B">M</text><line x1="770" y1="80" x2="770" y2="68"/><text class="v" x="748" y="65">Vcc</text><line x1="828" y1="128" x2="828" y2="102"/><line x1="770" y1="128" x2="828" y2="128"/><line x1="770" y1="80" x2="828" y2="80"/><polygon points="816,102 840,102 828,87" fill="none" stroke="#333" stroke-width="1.5"/><line x1="816" y1="87" x2="840" y2="87" stroke="#333" stroke-width="2"/><line x1="828" y1="80" x2="828" y2="87"/><text class="l" x="846" y="97">D1</text><text class="v" x="846" y="109">1N4007</text><rect x="30" y="370" width="900" height="70" rx="8" fill="#F8F8F8" stroke="#CCC"/><text x="475" y="395" text-anchor="middle" font-size="12" font-weight="bold">Fórmules LabView</text><text x="250" y="420" text-anchor="middle" font-size="11">lux = V × 200</text><text x="680" y="420" text-anchor="middle" font-size="11">motor = (5 − (lux × 0.0025)) × 0.5</text></svg>