<svg xmlns="http://www.w3.org/2000/svg" width="800" height="280" viewBox="0 0 800 280"><defs><marker id="a2" markerWidth="10" markerHeight="7" refX="10" refY="3.5" orient="auto"><polygon points="0 0,10 3.5,0 7" fill="#333"/></marker></defs><style>text{font-family:Arial,sans-serif;font-size:12px;fill:#333}.t{font-size:11px;font-weight:bold;fill:#1a1a1a}.s{font-size:9px;fill:#555}rect.b{rx:8;ry:8;stroke-width:2}</style><rect class="b" x="20" y="30" width="130" height="80" fill="#D5E8F0" stroke="#2E75B6"/><text class="t" x="85" y="58" text-anchor="middle">Sensor LDR</text><text class="s" x="85" y="76" text-anchor="middle">Divisor de tensió</text><line x1="150" y1="70" x2="185" y2="70" stroke="#333" stroke-width="2" marker-end="url(#a2)"/><rect class="b" x="190" y="25" width="140" height="90" fill="#E2F0D9" stroke="#548235"/><text class="t" x="260" y="50" text-anchor="middle">Acondicionament</text><text class="s" x="260" y="68" text-anchor="middle">UA741 + Filtre RC</text><line x1="330" y1="70" x2="365" y2="70" stroke="#333" stroke-width="2" marker-end="url(#a2)"/><rect class="b" x="370" y="30" width="130" height="80" fill="#FFF2CC" stroke="#BF8F00"/><text class="t" x="435" y="58" text-anchor="middle">DAQ NI-USB</text><text class="s" x="435" y="76" text-anchor="middle">AI 0 + AO 0</text><line x1="500" y1="70" x2="535" y2="70" stroke="#333" stroke-width="2" marker-end="url(#a2)"/><rect class="b" x="540" y="20" width="160" height="100" fill="#E2D5F0" stroke="#7030A0"/><text class="t" x="620" y="48" text-anchor="middle">LabView</text><text class="s" x="620" y="65" text-anchor="middle">Control proporcional</text><text class="s" x="620" y="80" text-anchor="middle">Fórmula motor</text><line x1="620" y1="120" x2="620" y2="160" stroke="#333" stroke-width="2" marker-end="url(#a2)"/><rect class="b" x="550" y="165" width="140" height="65" fill="#FCE4EC" stroke="#C0392B"/><text class="t" x="620" y="192" text-anchor="middle">Motor DC</text><text class="s" x="620" y="210" text-anchor="middle">Velocitat via AO 0</text></svg>